<?xml version="1.0" encoding="UTF-8"?>
<svg width="550px" height="120px" viewBox="0 0 550 120" version="1.1" xmlns="http://www.w3.org/2000/svg" xmlns:xlink="http://www.w3.org/1999/xlink">
    <!-- Generator: Sketch 52.5 (67469) - http://www.bohemiancoding.com/sketch -->
    <title>logo</title>
    <desc>Created with Sketch.</desc>
    <g id="Page-1" stroke="none" stroke-width="1" fill="none" fill-rule="evenodd">
        <g id="Artboard" transform="translate(-175.000000, -79.000000)" fill="#FFFFFF">
            <g id="logo" transform="translate(175.000000, 79.000000)">
                <path d="M219.51567,73.9240506 C219.51567,79.4936987 218.713736,84.7046171 217.109845,89.556962 C215.505954,94.409307 213.268981,98.4809962 210.39886,101.772152 C205.671602,107.257411 198.876271,110 190.012662,110 C185.707481,110 181.866641,109.008449 178.490028,107.025316 C175.113416,105.042184 172.116717,101.350238 169.499842,95.9493671 L165.701171,108.734177 L159.749921,108.734177 L159.749921,17.5949367 L150,15.1898734 L150,10 L172.032289,10 L172.032289,47.721519 C174.564748,44.5147519 177.392619,42.2784873 180.515986,41.0126582 C183.639353,39.7468291 187.142536,39.1139241 191.025641,39.1139241 C195.330822,39.1139241 199.234972,39.7468291 202.738208,41.0126582 C206.241444,42.2784873 209.090418,44.3037835 211.285217,47.0886076 C213.902092,50.2953747 215.928029,54.2193861 217.36309,58.8607595 C218.79815,63.5021329 219.51567,68.5231797 219.51567,73.9240506 Z M172.032289,74.0506329 C172.032289,84.4304316 173.509535,91.9830987 176.464071,96.7088608 C177.814716,98.9029646 179.46079,100.569615 181.402343,101.708861 C183.343895,102.848107 185.918524,103.417722 189.126306,103.417722 C194.866548,103.417722 199.129457,101.434619 201.915163,97.4683544 C203.434639,95.2742506 204.532022,92.2363063 205.207344,88.3544304 C205.882667,84.4725544 206.220323,80.0000253 206.220323,74.9367089 C206.220323,64.8100759 204.743077,57.2996025 201.788541,52.4050633 C200.35348,50.2109595 198.665199,48.5443095 196.723647,47.4050633 C194.782094,46.2658171 192.207466,45.6962025 188.999683,45.6962025 C186.045147,45.6962025 183.512726,46.1814297 181.402343,47.1518987 C179.291959,48.1223677 177.645885,49.5780494 176.464071,51.5189873 C175.02901,53.8818684 173.931628,56.9409095 173.17189,60.6962025 C172.412152,64.4514956 172.032289,68.9029278 172.032289,74.0506329 Z M293.209877,73.9240506 C293.209877,79.4936987 292.38684,84.7257139 290.740741,89.6202532 C289.094642,94.5147924 286.794359,98.5653848 283.839823,101.772152 C278.859319,107.257411 271.515296,110 261.807534,110 C252.353018,110 245.135616,107.341799 240.155112,102.025316 C237.284991,98.902938 235.069123,95.0422171 233.507439,90.443038 C231.945756,85.8438589 231.164926,80.8439089 231.164926,75.443038 C231.164926,69.8733899 231.966859,64.599181 233.57075,59.6202532 C235.174641,54.6413253 237.496028,50.5485392 240.534979,47.3417722 C243.23627,44.4725595 246.35959,42.3839728 249.905033,41.0759494 C253.450477,39.7679259 257.586765,39.1139241 262.314023,39.1139241 C266.956866,39.1139241 271.135362,39.7679259 274.849636,41.0759494 C278.56391,42.3839728 281.68723,44.3881722 284.21969,47.0886076 C287.174226,50.2109861 289.411198,54.1139006 290.930674,58.7974684 C292.45015,63.4810361 293.209877,68.5231797 293.209877,73.9240506 Z M244.713517,74.0506329 C244.713517,84.1772658 246.23297,91.7299329 249.271921,96.7088608 C250.706982,98.9029646 252.416367,100.569615 254.400127,101.708861 C256.383887,102.848107 258.979619,103.417722 262.187401,103.417722 C268.012058,103.417722 272.359382,101.434619 275.229503,97.4683544 C276.748979,95.2742506 277.867465,92.2363063 278.584995,88.3544304 C279.302525,84.4725544 279.661285,80.0000253 279.661285,74.9367089 C279.661285,64.8944646 278.141832,57.3839911 275.102881,52.4050633 C273.66782,50.2109595 271.937332,48.5443095 269.911364,47.4050633 C267.885397,46.2658171 265.268561,45.6962025 262.060779,45.6962025 C256.151706,45.6962025 251.888796,47.6371114 249.271921,51.5189873 C246.23297,56.2447494 244.713517,63.7552228 244.713517,74.0506329 Z M313.34283,47.9746835 L303.592909,45.5696203 L303.592909,40.3797468 L321.826527,40.3797468 L324.612219,53.0379747 L325.118708,53.0379747 C327.651168,48.7341557 331.048834,45.3375652 335.311808,42.8481013 C339.574781,40.3586373 344.196451,39.1139241 349.176955,39.1139241 C352.553568,39.1139241 355.592474,39.7046354 358.293764,40.8860759 C360.995054,42.0675165 363.147613,43.7552633 364.751504,45.9493671 C366.43981,48.3122481 367.64271,51.6244513 368.360241,55.8860759 C369.077771,60.1477006 369.436531,65.9071367 369.436531,73.164557 L369.436531,101.139241 L379.186451,103.544304 L379.186451,108.734177 L348.670465,108.734177 L348.670465,103.544304 L357.154163,101.139241 L357.154163,72.9113924 C357.154163,67.5105215 357.006438,63.4388323 356.710984,60.6962025 C356.415531,57.9535728 355.887943,55.8227924 355.128205,54.3037975 C353.017822,50.1687557 349.303604,48.1012658 343.985438,48.1012658 C341.621809,48.1012658 339.34263,48.5232025 337.147832,49.3670886 C334.953033,50.2109747 333.01151,51.3502038 331.323204,52.7848101 C329.466066,54.4725823 328.094338,56.434588 327.207977,58.6708861 C326.321616,60.9071842 325.794028,63.7974506 325.625198,67.3417722 L325.625198,101.139241 L334.108895,103.544304 L334.108895,108.734177 L303.592909,108.734177 L303.592909,103.544304 L313.34283,101.139241 L313.34283,47.9746835 Z M412.867996,104.177215 C417.67967,104.177215 421.562716,103.227858 424.517252,101.329114 C427.471789,99.4303703 428.949035,96.7088785 428.949035,93.164557 C428.949035,91.0548418 428.400343,89.2827076 427.302944,87.8481013 C426.205545,86.4134949 424.791609,85.1898785 423.061095,84.1772152 C421.330581,83.1645519 419.389058,82.2995816 417.236467,81.5822785 C415.083877,80.8649753 412.994629,80.2109734 410.968661,79.6202532 C408.351786,78.8607557 405.798261,77.9746886 403.308009,76.9620253 C400.817757,75.949362 398.580784,74.6624551 396.597024,73.1012658 C394.613264,71.5400766 393.030501,69.6413614 391.848686,67.4050633 C390.666872,65.1687652 390.075973,62.4472734 390.075973,59.2405063 C390.075973,53.1645266 392.291842,48.2911576 396.723647,44.6202532 C401.155451,40.9493487 407.338781,39.1139241 415.273821,39.1139241 C422.027047,39.1139241 427.366236,40.527412 431.291548,43.3544304 C435.21686,46.1814487 437.179487,50.0421696 437.179487,54.9367089 C437.179487,57.6371443 436.588589,59.7468278 435.406774,61.2658228 C434.22496,62.7848177 432.536679,63.5443038 430.34188,63.5443038 C428.400328,63.5443038 426.796461,62.9535924 425.530231,61.7721519 C424.264001,60.5907114 423.630896,59.0717392 423.630896,57.2151899 C423.630896,55.6118063 424.052966,54.1561247 424.897119,52.8481013 C425.741273,51.5400778 426.838655,50.5907203 428.1893,50 C426.923071,48.2278392 425.2981,46.9409323 423.31434,46.1392405 C421.33058,45.3375487 418.777055,44.9367089 415.653688,44.9367089 C405.523849,44.9367089 400.459006,48.5231709 400.459006,55.6962025 C400.459006,57.6371405 400.796662,59.2405 401.471985,60.5063291 C402.147307,61.7721582 403.160276,62.8691937 404.510921,63.7974684 C405.861566,64.725743 407.528744,65.5485196 409.512504,66.2658228 C411.496264,66.9831259 413.796547,67.7637089 416.413422,68.6075949 C419.283543,69.5358696 422.111414,70.5063241 424.897119,71.5189873 C427.682825,72.5316506 430.194143,73.7974608 432.431149,75.3164557 C434.668155,76.8354506 436.483057,78.7341658 437.87591,81.0126582 C439.268763,83.2911506 439.965179,86.1181266 439.965179,89.4936709 C439.965179,92.7848266 439.289866,95.6961899 437.939221,98.2278481 C436.588576,100.759506 434.68926,102.890287 432.241216,104.620253 C429.793171,106.35022 426.880886,107.67932 423.504274,108.607595 C420.127661,109.53587 416.413442,110 412.361507,110 C404.848543,110 398.834042,108.502125 394.317822,105.506329 C389.801602,102.510534 387.543526,98.3966506 387.543526,93.164557 C387.543526,90.4641215 388.155528,88.3333411 389.37955,86.7721519 C390.603573,85.2109627 392.355164,84.4303797 394.634378,84.4303797 C396.660346,84.4303797 398.36973,85.0210911 399.762583,86.2025316 C401.155436,87.3839722 401.851852,88.945138 401.851852,90.8860759 C401.851852,92.4894595 401.408678,94.0084316 400.522317,95.443038 C399.635956,96.8776443 398.559677,97.9324861 397.293447,98.6075949 C398.390846,100.295367 400.353473,101.645565 403.181387,102.658228 C406.0093,103.670891 409.238137,104.177215 412.867996,104.177215 Z M450.474834,93.9240506 C450.474834,90.6328949 451.213457,87.7215316 452.690725,85.1898734 C454.167993,82.6582152 456.510483,80.4008538 459.718265,78.4177215 C462.926047,76.4345892 467.062336,74.7257456 472.127255,73.2911392 C477.192175,71.8565329 483.269987,70.5907228 490.360874,69.4936709 C489.938797,64.514743 489.453416,60.6329253 488.904717,57.8481013 C488.356017,55.0632772 487.617394,52.8270127 486.688826,51.1392405 C485.507011,48.9451367 483.860937,47.3206804 481.750554,46.2658228 C479.640171,45.2109652 477.360991,44.6835443 474.912947,44.6835443 C472.549318,44.6835443 470.417863,45.105481 468.518519,45.9493671 C466.619174,46.7932532 465.331859,47.9324823 464.656537,49.3670886 C465.838351,50.2953633 466.703595,51.4134956 467.252295,52.721519 C467.800995,54.0295424 468.07534,55.2742557 468.07534,56.4556962 C468.07534,58.5654114 467.378924,60.2320614 465.986072,61.4556962 C464.593219,62.679331 462.883834,63.2911392 460.857866,63.2911392 C458.831899,63.2911392 457.164721,62.6160405 455.856284,61.2658228 C454.547846,59.9156051 453.893637,58.0168899 453.893637,55.5696203 C453.893637,52.9535734 454.611157,50.6118247 456.046217,48.5443038 C457.481278,46.4767829 459.35949,44.7468424 461.680912,43.3544304 C464.002333,41.9620184 466.619169,40.9071766 469.531497,40.1898734 C472.443826,39.4725703 475.335007,39.1139241 478.205128,39.1139241 C485.380431,39.1139241 491.036172,41.1814139 495.172523,45.3164557 C500.406273,50.5485494 503.023109,59.831157 503.023109,73.164557 L503.023109,91.5189873 C503.023109,95.7384177 503.297454,98.6286842 503.846154,100.189873 C504.394853,101.751063 505.597754,102.531646 507.454891,102.531646 L513.152896,102.531646 L513.152896,106.329114 C507.074993,108.776384 502.347806,110 498.971193,110 C497.704964,110 496.649788,109.789032 495.805635,109.367089 C494.961481,108.945146 494.286169,108.206756 493.779677,107.151899 C493.273185,106.097041 492.914425,104.683553 492.703387,102.911392 C492.492349,101.139232 492.386831,98.9029671 492.386831,96.2025316 L491.880342,96.2025316 C489.263467,100.506351 485.802491,103.881844 481.497309,106.329114 C477.192128,108.776384 472.549355,110 467.568851,110 C462.250686,110 458.07219,108.586512 455.033238,105.759494 C451.994287,102.932475 450.474834,98.9873671 450.474834,93.9240506 Z M472.88699,102.658228 C475.250619,102.658228 477.71973,102.04642 480.294397,100.822785 C482.869064,99.59915 485.042726,97.8903063 486.815448,95.6962025 C489.432323,92.4894354 490.740741,87.7637443 490.740741,81.5189873 C490.740741,80.084381 490.698534,78.670893 490.614118,77.278481 C490.529703,75.886069 490.403082,74.5569684 490.234251,73.2911392 C485.084917,74.3038025 480.800903,75.3586443 477.382083,76.4556962 C473.963262,77.5527481 471.219806,78.7974614 469.15163,80.1898734 C467.083455,81.5822854 465.627312,83.1856449 464.783159,85 C463.939006,86.8143551 463.516936,88.9029418 463.516936,91.2658228 C463.516936,94.8945329 464.339973,97.700412 465.986072,99.6835443 C467.63217,101.666677 469.932453,102.658228 472.88699,102.658228 Z M518.21779,45.5696203 L518.21779,40.3797468 L540.250079,40.3797468 L540.250079,101.139241 L550,103.544304 L550,108.734177 L518.21779,108.734177 L518.21779,103.544304 L527.967711,101.139241 L527.967711,47.9746835 L518.21779,45.5696203 Z M526.194998,20 C526.194998,17.5527304 526.891414,15.6118215 528.284267,14.1772152 C529.67712,12.7426089 531.59754,12.0253165 534.045584,12.0253165 C536.493628,12.0253165 538.435152,12.7426089 539.870212,14.1772152 C541.305273,15.6118215 542.022792,17.5527304 542.022792,20 C542.022792,22.4472696 541.305273,24.3670816 539.870212,25.7594937 C538.435152,27.1519057 536.493628,27.8481013 534.045584,27.8481013 C531.59754,27.8481013 529.67712,27.1519057 528.284267,25.7594937 C526.891414,24.3670816 526.194998,22.4472696 526.194998,20 Z" id="bonsai"></path>
                <path d="M90.5388295,1.10507479 C94.500976,6.92032472 97.4849834,14.3834582 98.8018205,21.8644816 C103.324185,47.5562829 90.4431035,71.4664855 67.192827,77.3248992 C55.2837713,80.749862 44.9449255,76.1377627 38.9334894,70.4539939 C32.4038089,78.1685213 30.6559624,85.2842818 30.5254034,85.8605103 C29.9303883,88.4548633 27.3477002,90.1249416 24.709395,89.5460752 C22.0887126,88.9794618 20.4308346,86.4142607 20.9932275,83.810304 C23.0143032,74.5565379 34.9615185,48.7676372 72.6704284,42.1070809 C73.9903902,41.873935 74.88149,40.6102037 74.65065,39.2987893 C74.4198101,37.9873748 73.1509722,37.1051552 71.8310104,37.3383011 C52.2415767,40.7983992 39.4447704,49.0206291 31.0738409,57.521351 C30.7904676,56.526531 30.4947179,55.5492628 30.3110952,54.5060923 C27.530523,38.7095091 38.1742142,23.6149414 54.0737545,20.8065924 L66.0734077,18.6870836 C75.5831327,17.0073729 83.0265032,10.5297449 86.262474,1.67602177 C86.9579096,-0.259974647 89.3709561,-0.609364212 90.5388295,1.10507479 Z M4.03062794,95.7568265 L115.970424,95.7568265 C118.198108,95.7568265 120.004002,97.5627209 120.004002,99.7904046 C120.004002,100.322112 119.898877,100.848574 119.694674,101.339506 L113.224616,116.894404 C112.442469,118.774793 110.605873,120 108.569304,120 L11.4317485,120 C9.39517896,120 7.55858349,118.774793 6.77643612,116.894404 L0.306378047,101.339506 C-0.549166981,99.2826595 0.42468021,96.9216997 2.48152663,96.0661547 C2.9724587,95.8619516 3.4989201,95.7568265 4.03062794,95.7568265 Z" id="Combined-Shape"></path>
            </g>
        </g>
    </g>
</svg>