<?xml version="1.0" encoding="UTF-8"?>
<svg width="550px" height="120px" viewBox="0 0 550 120" version="1.1" xmlns="http://www.w3.org/2000/svg" xmlns:xlink="http://www.w3.org/1999/xlink">
    <!-- Generator: Sketch 52.5 (67469) - http://www.bohemiancoding.com/sketch -->
    <title>logo</title>
    <desc>Created with Sketch.</desc>
    <defs>
        <path d="M210.784,37.776 C210.784,40.250679 210.357338,42.5973222 209.504,44.816 C208.650662,47.0346778 207.456008,49.0186579 205.92,50.768 C204.383992,52.5173421 202.570677,53.9679942 200.48,55.12 C198.389323,56.2720058 196.106679,57.018665 193.632,57.36 L193.632,57.872 C200.288033,59.3226739 205.535981,62.1599789 209.376,66.384 C213.216019,70.6080211 215.136,75.8346355 215.136,82.064 C215.136,86.9280243 213.877346,91.3653133 211.36,95.376 C208.842654,99.3866867 205.664019,102.373324 201.824,104.336 C200.629327,104.933336 199.328007,105.445331 197.92,105.872 C196.511993,106.298669 194.869343,106.661332 192.992,106.96 C191.114657,107.258668 188.981345,107.471999 186.592,107.6 C184.202655,107.728001 181.429349,107.792 178.272,107.792 L140,107.792 L140,102.288 L150.752,99.6 L150.752,23.824 L140,21.136 L140,15.632 L183.008,15.632 C191.968045,15.632 198.879976,17.8079782 203.744,22.16 C205.962678,24.2080102 207.69066,26.5973197 208.928,29.328 C210.16534,32.0586803 210.784,34.8746522 210.784,37.776 Z M163.552,63.376 L163.552,100.112 L177.632,100.112 C181.557353,100.112 184.714655,99.8986688 187.104,99.472 C189.493345,99.0453312 191.498659,98.3626714 193.12,97.424 C195.424012,96.0586598 197.301326,94.0106803 198.752,91.28 C200.202674,88.5493197 200.928,85.2640192 200.928,81.424 C200.928,78.1813171 200.373339,75.3440122 199.264,72.912 C198.154661,70.4799878 196.746675,68.5386739 195.04,67.088 C193.503992,65.8079936 191.541345,64.8693363 189.152,64.272 C186.762655,63.6746637 183.690685,63.376 179.936,63.376 L163.552,63.376 Z M163.552,55.952 L179.552,55.952 C185.525363,55.952 189.919986,54.4586816 192.736,51.472 C194.016006,50.1066598 195.125329,48.3786771 196.064,46.288 C197.002671,44.1973229 197.472,41.7866803 197.472,39.056 C197.472,36.4106534 197.002671,34.0426771 196.064,31.952 C195.125329,29.8613229 194.016006,28.1760064 192.736,26.896 C190.175987,24.3359872 185.952029,23.056 180.064,23.056 L163.552,23.056 L163.552,55.952 Z M290.016,72.592 C290.016,78.2240282 289.184008,83.5146419 287.52,88.464 C285.855992,93.4133581 283.530682,97.5093171 280.544,100.752 C275.509308,106.298694 268.085382,109.072 258.272,109.072 C248.714619,109.072 241.418692,106.384027 236.384,101.008 C233.482652,97.8506509 231.242675,93.9466899 229.664,89.296 C228.085325,84.6453101 227.296,79.5893606 227.296,74.128 C227.296,68.4959718 228.106659,63.1626918 229.728,58.128 C231.349341,53.0933082 233.695985,48.9546829 236.768,45.712 C239.49868,42.8106522 242.655982,40.6986733 246.24,39.376 C249.824018,38.0533267 254.005309,37.392 258.784,37.392 C263.477357,37.392 267.701315,38.0533267 271.456,39.376 C275.210685,40.6986733 278.367987,42.7253197 280.928,45.456 C283.914682,48.6133491 286.175992,52.5599763 287.712,57.296 C289.248008,62.0320237 290.016,67.1306394 290.016,72.592 Z M240.992,72.72 C240.992,82.9600512 242.527985,90.5973082 245.6,95.632 C247.050674,97.8506778 248.778657,99.5359942 250.784,100.688 C252.789343,101.840006 255.413317,102.416 258.656,102.416 C264.544029,102.416 268.938652,100.410687 271.84,96.4 C273.376008,94.1813222 274.506663,91.109353 275.232,87.184 C275.957337,83.258647 276.32,78.7360256 276.32,73.616 C276.32,63.4612826 274.784015,55.8666918 271.712,50.832 C270.261326,48.6133222 268.51201,46.9280058 266.464,45.776 C264.41599,44.6239942 261.770683,44.048 258.528,44.048 C252.554637,44.048 248.245347,46.010647 245.6,49.936 C242.527985,54.7146906 240.992,62.3092813 240.992,72.72 Z M310.368,46.352 L300.512,43.92 L300.512,38.672 L318.944,38.672 L321.76,51.472 L322.272,51.472 C324.832013,47.1199782 328.266645,43.6853459 332.576,41.168 C336.885355,38.6506541 341.557308,37.392 346.592,37.392 C350.00535,37.392 353.07732,37.9893274 355.808,39.184 C358.53868,40.3786726 360.714659,42.0853222 362.336,44.304 C364.042675,46.6933453 365.258663,50.0426451 365.984,54.352 C366.709337,58.6613549 367.072,64.4852966 367.072,71.824 L367.072,100.112 L376.928,102.544 L376.928,107.792 L346.08,107.792 L346.08,102.544 L354.656,100.112 L354.656,71.568 C354.656,66.1066394 354.506668,61.9893472 354.208,59.216 C353.909332,56.4426528 353.376004,54.2880077 352.608,52.752 C350.474656,48.5706458 346.720027,46.48 341.344,46.48 C338.954655,46.48 336.650678,46.9066624 334.432,47.76 C332.213322,48.6133376 330.250675,49.7653261 328.544,51.216 C326.666657,52.9226752 325.280004,54.9066554 324.384,57.168 C323.487996,59.4293446 322.954668,62.3519821 322.784,65.936 L322.784,100.112 L331.36,102.544 L331.36,107.792 L300.512,107.792 L300.512,102.544 L310.368,100.112 L310.368,46.352 Z M410.976,103.184 C415.840024,103.184 419.765318,102.22401 422.752,100.304 C425.738682,98.3839904 427.232,95.6320179 427.232,92.048 C427.232,89.914656 426.677339,88.1226739 425.568,86.672 C424.458661,85.2213261 423.029342,83.9840051 421.28,82.96 C419.530658,81.9359949 417.568011,81.061337 415.392,80.336 C413.215989,79.610663 411.10401,78.9493363 409.056,78.352 C406.410653,77.5839962 403.829346,76.6880051 401.312,75.664 C398.794654,74.6399949 396.533343,73.3386746 394.528,71.76 C392.522657,70.1813254 390.922673,68.2613446 389.728,66 C388.533327,63.7386554 387.936,60.9866829 387.936,57.744 C387.936,51.5999693 390.175978,46.6720186 394.656,42.96 C399.136022,39.2479814 405.386627,37.392 413.408,37.392 C420.234701,37.392 425.63198,38.821319 429.6,41.68 C433.56802,44.538681 435.552,48.4426419 435.552,53.392 C435.552,56.1226803 434.954673,58.2559923 433.76,59.792 C432.565327,61.3280077 430.858678,62.096 428.64,62.096 C426.677324,62.096 425.056006,61.4986726 423.776,60.304 C422.495994,59.1093274 421.856,57.5733427 421.856,55.696 C421.856,54.0746586 422.282662,52.6026733 423.136,51.28 C423.989338,49.9573267 425.09866,48.9973363 426.464,48.4 C425.183994,46.607991 423.541343,45.3066707 421.536,44.496 C419.530657,43.6853293 416.949349,43.28 413.792,43.28 C403.551949,43.28 398.432,46.9066304 398.432,54.16 C398.432,56.1226765 398.77333,57.7439936 399.456,59.024 C400.13867,60.3040064 401.16266,61.4133286 402.528,62.352 C403.89334,63.2906714 405.578657,64.122663 407.584,64.848 C409.589343,65.573337 411.914653,66.3626624 414.56,67.216 C417.461348,68.1546714 420.319986,69.1359949 423.136,70.16 C425.952014,71.1840051 428.490655,72.4639923 430.752,74 C433.013345,75.5360077 434.847993,77.4559885 436.256,79.76 C437.664007,82.0640115 438.368,84.9226496 438.368,88.336 C438.368,91.6640166 437.68534,94.6079872 436.32,97.168 C434.95466,99.7280128 433.034679,101.882658 430.56,103.632 C428.085321,105.381342 425.14135,106.725329 421.728,107.664 C418.31465,108.602671 414.56002,109.072 410.464,109.072 C402.869295,109.072 396.789356,107.557348 392.224,104.528 C387.658644,101.498652 385.376,97.3386931 385.376,92.048 C385.376,89.3173197 385.99466,87.1626746 387.232,85.584 C388.46934,84.0053254 390.239988,83.216 392.544,83.216 C394.59201,83.216 396.319993,83.8133274 397.728,85.008 C399.136007,86.2026726 399.84,87.7813235 399.84,89.744 C399.84,91.3653414 399.392004,92.9013261 398.496,94.352 C397.599996,95.8026739 396.512006,96.8693299 395.232,97.552 C396.341339,99.2586752 398.325319,100.623995 401.184,101.648 C404.042681,102.672005 407.306648,103.184 410.976,103.184 Z M448.992,92.816 C448.992,89.4879834 449.738659,86.5440128 451.232,83.984 C452.725341,81.4239872 455.093317,79.1413434 458.336,77.136 C461.578683,75.1306566 465.759974,73.4026739 470.88,71.952 C476.000026,70.5013261 482.143964,69.2213389 489.312,68.112 C488.885331,63.0773082 488.394669,59.1520141 487.84,56.336 C487.285331,53.5199859 486.538671,51.2586752 485.6,49.552 C484.405327,47.3333222 482.741344,45.690672 480.608,44.624 C478.474656,43.557328 476.170679,43.024 473.696,43.024 C471.306655,43.024 469.15201,43.4506624 467.232,44.304 C465.31199,45.1573376 464.01067,46.3093261 463.328,47.76 C464.522673,48.6986714 465.397331,49.8293267 465.952,51.152 C466.506669,52.4746733 466.784,53.7333274 466.784,54.928 C466.784,57.061344 466.080007,58.7466605 464.672,59.984 C463.263993,61.2213395 461.53601,61.84 459.488,61.84 C457.43999,61.84 455.754673,61.1573402 454.432,59.792 C453.109327,58.4266598 452.448,56.506679 452.448,54.032 C452.448,51.3866534 453.173326,49.0186771 454.624,46.928 C456.074674,44.8373229 457.973322,43.088007 460.32,41.68 C462.666678,40.271993 465.311985,39.205337 468.256,38.48 C471.200015,37.754663 474.122652,37.392 477.024,37.392 C484.27737,37.392 489.994646,39.4826458 494.176,43.664 C499.466693,48.9546931 502.112,58.3412659 502.112,71.824 L502.112,90.384 C502.112,94.650688 502.389331,97.5733254 502.944,99.152 C503.498669,100.730675 504.714657,101.52 506.592,101.52 L512.352,101.52 L512.352,105.36 C506.207969,107.834679 501.42935,109.072 498.016,109.072 C496.735994,109.072 495.669338,108.858669 494.816,108.432 C493.962662,108.005331 493.280003,107.258672 492.768,106.192 C492.255997,105.125328 491.893334,103.696009 491.68,101.904 C491.466666,100.111991 491.36,97.8506803 491.36,95.12 L490.848,95.12 C488.202653,99.4720218 484.704022,102.885321 480.352,105.36 C475.999978,107.834679 471.306692,109.072 466.272,109.072 C460.895973,109.072 456.672015,107.642681 453.6,104.784 C450.527985,101.925319 448.992,97.9360256 448.992,92.816 Z M471.648,101.648 C474.037345,101.648 476.53332,101.02934 479.136,99.792 C481.73868,98.5546605 483.935991,96.8266778 485.728,94.608 C488.373347,91.3653171 489.696,86.5866982 489.696,80.272 C489.696,78.8213261 489.653334,77.392007 489.568,75.984 C489.482666,74.575993 489.354668,73.2320064 489.184,71.952 C483.978641,72.9760051 479.648017,74.0426611 476.192,75.152 C472.735983,76.2613389 469.962677,77.519993 467.872,78.928 C465.781323,80.336007 464.309338,81.9573242 463.456,83.792 C462.602662,85.6266758 462.176,87.7386547 462.176,90.128 C462.176,93.7973517 463.007992,96.6346566 464.672,98.64 C466.336008,100.645343 468.661318,101.648 471.648,101.648 Z M517.472,43.92 L517.472,38.672 L539.744,38.672 L539.744,100.112 L549.6,102.544 L549.6,107.792 L517.472,107.792 L517.472,102.544 L527.328,100.112 L527.328,46.352 L517.472,43.92 Z M525.536,18.064 C525.536,15.589321 526.239993,13.6266739 527.648,12.176 C529.056007,10.7253261 530.997321,10 533.472,10 C535.946679,10 537.909326,10.7253261 539.36,12.176 C540.810674,13.6266739 541.536,15.589321 541.536,18.064 C541.536,20.538679 540.810674,22.479993 539.36,23.888 C537.909326,25.296007 535.946679,26 533.472,26 C530.997321,26 529.056007,25.296007 527.648,23.888 C526.239993,22.479993 525.536,20.538679 525.536,18.064 Z" id="path-1"></path>
    </defs>
    <g id="Page-1" stroke="none" stroke-width="1" fill="none" fill-rule="evenodd">
        <g id="Artboard" transform="translate(-175.000000, -79.000000)" fill="#FFFFFF">
            <g id="logo" transform="translate(175.000000, 79.000000)">
                <g id="Bonsai">
                    <use xlink:href="#path-1"></use>
                    <use xlink:href="#path-1"></use>
                </g>
                <path d="M90.5388295,1.10507479 C94.500976,6.92032472 97.4849834,14.3834582 98.8018205,21.8644816 C103.324185,47.5562829 90.4431035,71.4664855 67.192827,77.3248992 C55.2837713,80.749862 44.9449255,76.1377627 38.9334894,70.4539939 C32.4038089,78.1685213 30.6559624,85.2842818 30.5254034,85.8605103 C29.9303883,88.4548633 27.3477002,90.1249416 24.709395,89.5460752 C22.0887126,88.9794618 20.4308346,86.4142607 20.9932275,83.810304 C23.0143032,74.5565379 34.9615185,48.7676372 72.6704284,42.1070809 C73.9903902,41.873935 74.88149,40.6102037 74.65065,39.2987893 C74.4198101,37.9873748 73.1509722,37.1051552 71.8310104,37.3383011 C52.2415767,40.7983992 39.4447704,49.0206291 31.0738409,57.521351 C30.7904676,56.526531 30.4947179,55.5492628 30.3110952,54.5060923 C27.530523,38.7095091 38.1742142,23.6149414 54.0737545,20.8065924 L66.0734077,18.6870836 C75.5831327,17.0073729 83.0265032,10.5297449 86.262474,1.67602177 C86.9579096,-0.259974647 89.3709561,-0.609364212 90.5388295,1.10507479 Z M4.03062794,95.7568265 L115.970424,95.7568265 C118.198108,95.7568265 120.004002,97.5627209 120.004002,99.7904046 C120.004002,100.322112 119.898877,100.848574 119.694674,101.339506 L113.224616,116.894404 C112.442469,118.774793 110.605873,120 108.569304,120 L11.4317485,120 C9.39517896,120 7.55858349,118.774793 6.77643612,116.894404 L0.306378047,101.339506 C-0.549166981,99.2826595 0.42468021,96.9216997 2.48152663,96.0661547 C2.9724587,95.8619516 3.4989201,95.7568265 4.03062794,95.7568265 Z" id="Combined-Shape"></path>
            </g>
        </g>
    </g>
</svg>